<svg xmlns="http://www.w3.org/2000/svg" width="35" height="35" viewBox="0 0 35 35"><g><g><g><path fill="#11cdef" d="M0 17.5C0 7.835 7.835 0 17.5 0S35 7.835 35 17.5 27.165 35 17.5 35 0 27.165 0 17.5z"/></g><g><g><g><path fill="#fff" d="M22.035 24.84c-.13.001-.26-.03-.375-.089l-4.16-2.178-4.16 2.178a.816.816 0 0 1-1.183-.864l.816-4.593-3.36-3.262a.816.816 0 0 1-.204-.816.816.816 0 0 1 .66-.555l4.65-.677L16.766 9.8a.816.816 0 0 1 1.468 0l2.072 4.176 4.65.677a.816.816 0 0 1 .66.555.816.816 0 0 1-.204.816l-3.36 3.262.815 4.592a.816.816 0 0 1-.326.816.816.816 0 0 1-.506.147z"/></g></g></g></g></g></svg>